<?xml version="1.0" encoding="UTF-8"?>
<!DOCTYPE svg PUBLIC "-//W3C//DTD SVG 1.1//EN" "http://www.w3.org/Graphics/SVG/1.1/DTD/svg11.dtd">
<svg xmlns="http://www.w3.org/2000/svg" version="1.1" width="1024px" height="1024px" style="shape-rendering:geometricPrecision; text-rendering:geometricPrecision; image-rendering:optimizeQuality; fill-rule:evenodd; clip-rule:evenodd" xmlns:xlink="http://www.w3.org/1999/xlink">
<g><path style="opacity:0.984" fill="#65ccff" d="M 508.5,127.5 C 550.095,124.206 579.929,141.206 598,178.5C 610.544,214.824 603.044,246.324 575.5,273C 551.643,291.905 524.976,297.238 495.5,289C 463.344,277.204 444.511,254.371 439,220.5C 436.918,170.438 460.085,139.438 508.5,127.5 Z M 520.5,169.5 C 549.888,173.385 563.055,190.052 560,219.5C 554.075,238.76 541.075,249.094 521,250.5C 496.473,247.806 483.306,234.139 481.5,209.5C 483.723,185.611 496.723,172.277 520.5,169.5 Z"/></g>
<g><path style="opacity:0.98" fill="#65ccff" d="M 480.5,305.5 C 489.5,305.5 498.5,305.5 507.5,305.5C 507.5,345.167 507.5,384.833 507.5,424.5C 498.161,424.666 488.827,424.5 479.5,424C 464.154,407.322 448.821,390.655 433.5,374C 439.934,367.566 446.434,361.066 453,354.5C 462,364.167 471,373.833 480,383.5C 480.5,357.502 480.667,331.502 480.5,305.5 Z"/></g>
<g><path style="opacity:0.982" fill="#65ccff" d="M 534.5,305.5 C 543.839,305.334 553.173,305.5 562.5,306C 577.65,322.65 592.983,339.15 608.5,355.5C 602.465,362.536 595.798,368.869 588.5,374.5C 579.512,365.344 570.678,356.011 562,346.5C 561.5,372.498 561.333,398.498 561.5,424.5C 552.5,424.5 543.5,424.5 534.5,424.5C 534.5,384.833 534.5,345.167 534.5,305.5 Z"/></g>
<g><path style="opacity:0.991" fill="#65ccff" d="M 522.5,429.5 C 574.27,458.553 625.603,488.386 676.5,519C 625.582,548.916 574.415,578.416 523,607.5C 471.768,578.133 420.601,548.633 369.5,519C 420.563,489.14 471.563,459.307 522.5,429.5 Z"/></g>
<g><path style="opacity:0.992" fill="#65ccff" d="M 356.5,538.5 C 407.723,567.044 458.723,596.044 509.5,625.5C 510.314,627.766 510.814,630.1 511,632.5C 511.667,689.5 511.667,746.5 511,803.5C 460,774.5 409,745.5 358,716.5C 357.646,657.164 357.146,597.831 356.5,538.5 Z"/></g>
<g><path style="opacity:0.991" fill="#65ccff" d="M 686.5,538.5 C 687.821,541.598 688.488,545.098 688.5,549C 687.712,604.495 687.212,659.995 687,715.5C 635.829,745.086 584.496,774.42 533,803.5C 532.71,744.165 533.043,684.832 534,625.5C 584.977,596.599 635.811,567.599 686.5,538.5 Z"/></g>
<g><path style="opacity:0.972" fill="#65ccff" d="M 781.5,668.5 C 782.833,668.5 784.167,668.5 785.5,668.5C 787.553,677.432 789.22,686.432 790.5,695.5C 777.772,698.015 765.105,700.848 752.5,704C 774.668,717.585 797.001,730.918 819.5,744C 815.282,752.281 810.449,760.114 805,767.5C 770.934,747.551 737.101,727.217 703.5,706.5C 708.041,698.584 712.707,690.751 717.5,683C 739.03,678.448 760.363,673.615 781.5,668.5 Z"/></g>
<g><path style="opacity:0.971" fill="#65ccff" d="M 247.5,678.5 C 255.511,680.558 263.511,682.725 271.5,685C 272.516,685.519 273.182,686.353 273.5,687.5C 269.79,699.446 266.623,711.446 264,723.5C 285.851,710.241 307.851,697.241 330,684.5C 335.737,691.444 340.571,699.111 344.5,707.5C 310.5,727.833 276.5,748.167 242.5,768.5C 237.313,760.79 232.646,752.79 228.5,744.5C 234.841,722.465 241.174,700.465 247.5,678.5 Z"/></g>
<g><path style="opacity:0.972" fill="#65ccff" d="M 688.5,728.5 C 721.947,748.107 755.28,767.94 788.5,788C 789.357,788.689 790.023,789.522 790.5,790.5C 786.167,797.833 781.833,805.167 777.5,812.5C 754.997,818.627 732.33,823.794 709.5,828C 707.102,819.246 705.268,810.413 704,801.5C 716.53,798.693 729.03,795.693 741.5,792.5C 719.999,779.248 698.332,766.248 676.5,753.5C 675.417,752.635 675.251,751.635 676,750.5C 679.994,743.021 684.161,735.688 688.5,728.5 Z"/></g>
<g><path style="opacity:0.97" fill="#65ccff" d="M 355.5,730.5 C 356.675,730.281 357.675,730.614 358.5,731.5C 362.96,738.918 367.293,746.418 371.5,754C 364.747,776.173 357.914,798.339 351,820.5C 342.646,817.66 334.146,815.327 325.5,813.5C 328.795,800.798 331.961,788.132 335,775.5C 312.99,788.183 290.99,800.85 269,813.5C 268.228,813.355 267.561,813.022 267,812.5C 263.033,805.038 258.867,797.705 254.5,790.5C 288.395,770.726 322.062,750.726 355.5,730.5 Z"/></g>
<g><path style="opacity:0.984" fill="#65ccff" d="M 864.5,745.5 C 907.391,742.097 937.391,759.931 954.5,799C 967.272,841.693 955.272,875.36 918.5,900C 878.841,918.933 843.674,912.766 813,881.5C 793.62,855.546 789.286,827.213 800,796.5C 812.884,768.434 834.384,751.434 864.5,745.5 Z M 876.5,787.5 C 900.923,790.09 914.59,803.59 917.5,828C 913.232,856.809 896.566,869.809 867.5,867C 851.892,862.392 842.059,852.226 838,836.5C 835.566,807.991 848.399,791.658 876.5,787.5 Z"/></g>
<g><path style="opacity:0.984" fill="#65ccff" d="M 155.5,748.5 C 197.742,745.527 227.576,763.194 245,801.5C 257.577,843.44 246.077,876.94 210.5,902C 172.141,921.57 137.308,916.737 106,887.5C 83.9875,860.425 78.9875,830.425 91,797.5C 104.126,770.183 125.626,753.85 155.5,748.5 Z M 166.5,790.5 C 185.113,791.226 197.946,800.226 205,817.5C 210.71,840.244 203.21,857.077 182.5,868C 159.911,874.96 142.744,868.127 131,847.5C 123.081,824.92 129.247,807.42 149.5,795C 155.087,792.688 160.754,791.188 166.5,790.5 Z"/></g>
</svg>
